<?xml version="1.0" standalone="no"?>
<!DOCTYPE svg PUBLIC "-//W3C//DTD SVG 20010904//EN"
 "http://www.w3.org/TR/2001/REC-SVG-20010904/DTD/svg10.dtd">
<svg version="1.0" xmlns="http://www.w3.org/2000/svg"
 width="500.000000pt" height="500.000000pt" viewBox="0 0 500.000000 500.000000"
 preserveAspectRatio="xMidYMid meet">

<g transform="translate(0.000000,500.000000) scale(0.100000,-0.100000)"
fill="#000000" stroke="none">
<path d="M0 2500 l0 -2500 2500 0 2500 0 0 2500 0 2500 -2500 0 -2500 0 0
-2500z m2446 817 c33 -39 33 -99 -1 -132 -13 -14 -30 -25 -36 -25 -7 0 -2 -11
10 -24 19 -20 61 -128 61 -157 0 -5 -9 -9 -19 -9 -15 0 -24 15 -40 63 -33 97
-42 107 -107 107 l-54 0 0 -85 c0 -78 -2 -85 -20 -85 -19 0 -20 7 -20 191 l0
191 101 -4 c96 -3 102 -4 125 -31z m341 -152 c35 -99 63 -183 63 -187 0 -5
-10 -8 -23 -8 -19 0 -25 8 -36 50 l-13 51 -86 -3 -86 -3 -15 -47 c-12 -39 -19
-48 -38 -48 -13 0 -23 2 -23 4 0 3 114 331 125 359 6 13 16 17 38 15 31 -3 32
-5 94 -183z"/>
<path d="M2260 3245 l0 -65 61 0 c83 0 99 10 99 63 0 24 -5 48 -12 55 -7 7
-40 12 -80 12 l-68 0 0 -65z"/>
<path d="M2653 3205 l-31 -95 70 0 c52 0 68 3 65 13 -3 6 -18 49 -33 95 -16
45 -31 82 -34 82 -3 0 -20 -43 -37 -95z"/>
</g>
</svg>
